<svg xmlns="http://www.w3.org/2000/svg" xmlns:xlink="http://www.w3.org/1999/xlink" viewBox="0 0 346.41 396.91"><defs><style>.cls-1{fill:url(#Degradado_sin_nombre_23);}.cls-2{fill:#fff;}</style><linearGradient id="Degradado_sin_nombre_23" y1="198.45" x2="346.41" y2="198.45" gradientUnits="userSpaceOnUse"><stop offset="0" stop-color="#6035dc"/><stop offset="1" stop-color="#3758ff"/></linearGradient></defs><g id="Capa_2" data-name="Capa 2"><g id="Logo_Design" data-name="Logo Design"><g id="Logo"><path class="cls-1" d="M0,104.23V292.68a10,10,0,0,0,5,8.66l163.21,94.23a10,10,0,0,0,10,0l163.2-94.23a10,10,0,0,0,5-8.66V104.23a10,10,0,0,0-5-8.66L178.21,1.34a10,10,0,0,0-10,0L5,95.57A10,10,0,0,0,0,104.23Z"/><path class="cls-2" d="M283.47,209.92a117.65,117.65,0,0,1-119.3,113.49c-63.37-.91-115-52.65-115.91-116A117.65,117.65,0,0,1,161.75,88.2a4,4,0,0,1,4.15,4v50.86a4,4,0,0,1-3.81,4,58.83,58.83,0,1,0,62.5,62.51,4,4,0,0,1,4-3.8h50.88A4,4,0,0,1,283.47,209.92Z"/><path class="cls-2" d="M294.15,191.06H243.27a4,4,0,0,1-4-3.8,58.85,58.85,0,0,0-54.9-54.91,4,4,0,0,1-3.8-4V77.49a4,4,0,0,1,4.14-4A117.66,117.66,0,0,1,298.16,186.92,4,4,0,0,1,294.15,191.06Z"/></g></g></g></svg>